<svg xmlns="http://www.w3.org/2000/svg" version="1.1" viewBox="-5.0 -10.0 110.0 135.0">
 <path d="m50 96.875c19.965 0 35.605-6.8672 35.605-15.637v-62.477c0-8.7656-15.641-15.637-35.605-15.637s-35.605 6.8672-35.605 15.637v62.477c0 8.7656 15.641 15.637 35.605 15.637zm0-90.625c19.43 0 32.48 6.4688 32.48 12.512 0 3.2305-3.7891 6.5859-10.148 8.9727-6.0391 2.3008-13.973 3.5703-22.332 3.5703s-16.32-1.2656-22.34-3.5703c-6.3516-2.3828-10.141-5.7383-10.141-8.9688 0-6.043 13.051-12.512 32.48-12.512zm-32.016 19.531c0.12109 0.10938 0.23438 0.21875 0.35938 0.32812 0.17188 0.14453 0.35938 0.28906 0.53906 0.42969 0.125 0.097657 0.23828 0.19531 0.36719 0.29297 0.22266 0.16406 0.46094 0.32812 0.69531 0.48828 0.10156 0.070313 0.19531 0.14063 0.30078 0.21094 0.26562 0.17578 0.54688 0.34375 0.82812 0.51562 0.089843 0.054687 0.17188 0.10938 0.26172 0.16406 0.29297 0.17187 0.60156 0.33984 0.91406 0.50781 0.089844 0.046875 0.17188 0.097656 0.26172 0.14453 0.35156 0.18359 0.71484 0.35938 1.0859 0.53906 0.0625 0.027344 0.11719 0.058594 0.17578 0.085937 0.87109 0.40625 1.7969 0.79688 2.7773 1.1641 6.3594 2.4336 14.684 3.7734 23.445 3.7734 8.7617 0 17.055-1.3398 23.438-3.7695 0.49219-0.18359 0.96875-0.375 1.4297-0.56641 0.23828-0.10156 0.46094-0.20312 0.6875-0.30469 0.21875-0.097656 0.44531-0.19141 0.65625-0.28906 0.22266-0.10156 0.42969-0.21094 0.64453-0.32031 0.20703-0.10156 0.42188-0.20312 0.61719-0.30469 0.21094-0.10938 0.40625-0.22656 0.61328-0.33984 0.1875-0.10547 0.38281-0.20703 0.5625-0.3125 0.19922-0.11719 0.38281-0.23828 0.57031-0.35547 0.17188-0.10938 0.35156-0.21094 0.51562-0.32031 0.16406-0.10938 0.3125-0.21875 0.47266-0.33203 0.17578-0.125 0.35938-0.24609 0.53125-0.37109 0.14062-0.10547 0.26953-0.21484 0.40234-0.32031 0.17188-0.13281 0.34766-0.26562 0.50781-0.40234 0.125-0.10547 0.23438-0.21484 0.35156-0.32031 0.15625-0.14062 0.32031-0.28125 0.46875-0.42578 0.003906-0.003906 0.003906-0.003906 0.007812-0.007813v14.238c0 3.2422-3.7891 6.582-10.148 8.9453-6.0898 2.3203-14.02 3.5977-22.332 3.5977s-16.273-1.2773-22.344-3.6016c-6.3477-2.3555-10.137-5.6992-10.137-8.9375v-14.238l0.007812 0.007812c0.14453 0.14062 0.30469 0.27734 0.45703 0.41797zm-0.09375 20.75c0.15234 0.14062 0.29688 0.28125 0.46094 0.41797 0.14844 0.125 0.3125 0.25 0.47266 0.375 0.14453 0.11719 0.28516 0.23438 0.4375 0.34766 0.18359 0.13672 0.38281 0.26953 0.57812 0.40625 0.14062 0.097656 0.27344 0.19531 0.41797 0.29297 0.23438 0.15234 0.48438 0.30078 0.72656 0.44922 0.12109 0.074219 0.23438 0.14844 0.35938 0.22266 0.25781 0.14844 0.53125 0.29688 0.80078 0.44141 0.125 0.070313 0.24219 0.14062 0.375 0.20703 0.36719 0.19141 0.74609 0.375 1.1328 0.55859 0.042968 0.019531 0.082031 0.039062 0.125 0.0625 0.40625 0.1875 0.82422 0.37109 1.2539 0.55078 0.03125 0.015625 0.0625 0.027344 0.09375 0.039063 0.46094 0.19141 0.94141 0.37891 1.4297 0.5625 6.4062 2.4531 14.734 3.8008 23.445 3.8008 8.7148 0 17.008-1.3516 23.43-3.7969 0.98437-0.36719 1.9102-0.75 2.7812-1.1562 0.17187-0.078125 0.33594-0.16406 0.50391-0.24609 0.25781-0.125 0.51562-0.24609 0.76172-0.375 0.17969-0.09375 0.34375-0.19141 0.51953-0.28516 0.21875-0.12109 0.44531-0.23828 0.65625-0.35938 0.17578-0.10156 0.33984-0.21094 0.51172-0.31641 0.19531-0.11719 0.39453-0.23438 0.57813-0.35938 0.17578-0.11719 0.33984-0.23438 0.50781-0.35547 0.16406-0.11328 0.33594-0.22656 0.49219-0.34375 0.17578-0.12891 0.33594-0.26562 0.50391-0.39844 0.13672-0.10938 0.27734-0.21484 0.40625-0.32422 0.16016-0.13672 0.30469-0.27734 0.45703-0.41406 0.12109-0.10938 0.24609-0.21875 0.35938-0.32812 0.003906-0.003906 0.007812-0.007812 0.011719-0.007812v14.207c0 2.8125-2.8594 5.707-7.7695 7.9609-0.70313 0.32031-1.4453 0.63281-2.2266 0.92578-0.0625 0.015625-0.12109 0.035156-0.17969 0.054687-6.0898 2.3203-14.008 3.5977-22.301 3.5977-8.293 0-16.242-1.2773-22.301-3.5938-0.054687-0.019531-0.10938-0.039062-0.16797-0.050781-6.2734-2.3555-10.012-5.6719-10.012-8.8906v-14.203s0.007812 0.007813 0.011718 0.007813c0.11328 0.10938 0.23828 0.21875 0.35938 0.32422zm0.082031 20.887c0.125 0.11328 0.24219 0.22656 0.375 0.33984 0.13672 0.11719 0.28906 0.22656 0.42969 0.34375 0.16016 0.125 0.3125 0.25781 0.48047 0.38281 0.125 0.09375 0.26563 0.18359 0.39453 0.27734 0.19922 0.14062 0.39453 0.28516 0.60547 0.42188 0.10156 0.066406 0.21875 0.13281 0.32031 0.19922 0.25 0.16016 0.5 0.32031 0.76953 0.47656 0.074219 0.042969 0.15625 0.085937 0.23047 0.12891 0.30859 0.17578 0.61719 0.35156 0.94531 0.51953 0.078124 0.039063 0.16406 0.078126 0.24219 0.11719 0.33203 0.16797 0.66797 0.33594 1.0195 0.5 0.43359 0.20312 0.88281 0.39844 1.3438 0.58984 0.46484 0.19141 0.94141 0.37891 1.4297 0.5625 0.046875 0.015625 0.097656 0.03125 0.14844 0.046875 6.3867 2.4219 14.648 3.75 23.285 3.75 8.6367 0 16.855-1.3281 23.27-3.7461 0.054687-0.015625 0.10938-0.03125 0.16406-0.050781 0.98438-0.36719 1.9102-0.75 2.7812-1.1562 0.17188-0.078125 0.33594-0.16406 0.50391-0.24609 0.25781-0.125 0.51562-0.24609 0.76172-0.375 0.17969-0.09375 0.34375-0.19141 0.51953-0.28516 0.21875-0.12109 0.44531-0.23828 0.65625-0.35938 0.17578-0.10156 0.33984-0.21094 0.51172-0.31641 0.19531-0.11719 0.39453-0.23437 0.57812-0.35937 0.17578-0.11719 0.33984-0.23438 0.50781-0.35547 0.16406-0.11328 0.33594-0.22656 0.49219-0.34375 0.17578-0.12891 0.33594-0.26562 0.50391-0.39844 0.13672-0.10938 0.27734-0.21484 0.40625-0.32422 0.16016-0.13672 0.30469-0.27734 0.45703-0.41406 0.12109-0.10938 0.24609-0.21875 0.35938-0.32812 0.003906-0.003906 0.007812-0.007813 0.011718-0.007813v14.234c0 6.043-13.051 12.512-32.48 12.512-19.43 0-32.48-6.4688-32.48-12.512v-14.234s0.007813 0.003907 0.007813 0.007813c0.14062 0.13672 0.29687 0.26953 0.44531 0.40625z"/>
</svg>