
<svg xmlns="http://www.w3.org/2000/svg" xmlns:xlink="http://www.w3.org/1999/xlink" version="1.1" x="0px" y="0px" viewBox="0 0 96 120" style="enable-background:new 0 0 96 96;" xml:space="preserve"><style type="text/css">
	.st0{fill-rule:evenodd;clip-rule:evenodd;}
</style><path d="M86.543,4.526H11.099c-4.104,0-7.443,3.339-7.443,7.443v49.467c0,4.104,3.339,7.443,7.443,7.443h24.479  c-0.049,4.812-1.217,9.68-2.52,12.549h-5.2c-2.769,0-5.023,2.253-5.023,5.023c0,2.769,2.253,5.023,5.023,5.023h40.286  c2.769,0,5.023-2.253,5.023-5.023c0-2.769-2.253-5.023-5.023-5.023H62.93c-1.363-2.921-2.606-7.806-2.698-12.549h24.669  c4.104,0,7.443-3.339,7.443-7.443V10.328C92.345,7.129,89.742,4.526,86.543,4.526z M11.099,7.04h75.445  c1.813,0,3.288,1.475,3.288,3.289v43.733H6.169V11.969C6.169,9.251,8.38,7.04,11.099,7.04z M70.652,86.451  c0,1.383-1.126,2.509-2.509,2.509H27.858c-1.383,0-2.509-1.126-2.509-2.509s1.126-2.509,2.509-2.509h40.286  C69.527,83.942,70.652,85.068,70.652,86.451z M60.187,81.429H35.788c1.377-3.503,2.257-8.253,2.303-12.549h19.628  C57.799,73.123,58.742,77.876,60.187,81.429z M84.901,66.367H11.099c-2.718,0-4.93-2.212-4.93-4.93v-4.863h83.662v4.863  C89.831,64.155,87.62,66.367,84.901,66.367z M52.658,61.47c0,0.694-0.563,1.257-1.257,1.257h-6.802  c-0.694,0-1.257-0.563-1.257-1.257c0-0.694,0.563-1.257,1.257-1.257h6.802C52.095,60.214,52.658,60.776,52.658,61.47z   M34.328,45.478h8.229c0.694,0,1.257-0.563,1.257-1.257v-1.476c0-1.032,0.85-1.872,1.894-1.872c1.032,0,1.872,0.84,1.872,1.872  v1.476c0,0.694,0.563,1.257,1.257,1.257h8.23c0.694,0,1.257-0.563,1.257-1.257v-6.973h0.22c2.418,0,4.385-1.977,4.385-4.408  c0-2.418-1.967-4.385-4.385-4.385h-0.22v-6.973c0-0.694-0.563-1.257-1.257-1.257h-6.973v-0.22c0-2.418-1.977-4.385-4.408-4.385  c-2.418,0-4.385,1.967-4.385,4.385v0.22h-6.973c-0.694,0-1.257,0.563-1.257,1.257v8.229c0,0.694,0.563,1.257,1.257,1.257h1.477  c1.032,0,1.872,0.85,1.872,1.894c0,1.032-0.84,1.872-1.872,1.872h-1.477c-0.694,0-1.257,0.563-1.257,1.257v8.229  C33.072,44.916,33.634,45.478,34.328,45.478z M35.585,37.249h0.22c2.418,0,4.385-1.967,4.385-4.385c0-2.431-1.967-4.408-4.385-4.408  h-0.22V22.74h6.973c0.694,0,1.257-0.563,1.257-1.257v-1.477c0-1.032,0.84-1.872,1.872-1.872c1.044,0,1.894,0.84,1.894,1.872v1.477  c0,0.694,0.563,1.257,1.257,1.257h6.973v6.973c0,0.694,0.563,1.257,1.257,1.257h1.477c1.032,0,1.872,0.84,1.872,1.872  c0,1.044-0.84,1.894-1.872,1.894h-1.477c-0.694,0-1.257,0.563-1.257,1.257v6.973h-5.716v-0.22c0-2.418-1.967-4.385-4.385-4.385  c-2.43,0-4.408,1.967-4.408,4.385v0.22h-5.716V37.249z"/></svg>