<svg xmlns="http://www.w3.org/2000/svg" version="1.1" viewBox="-5.0 -10.0 110.0 135.0">
 <path d="m72.82 37.719-19.102-13.301c-2.2305-1.5508-5.2188-1.5508-7.4492 0l-19.102 13.301c-1.3516 0.94141-2.1484 2.4805-2.1484 4.1211v24.461c0 5.7617 4.6914 10.449 10.449 10.449h29.059c5.7617 0 10.449-4.6914 10.449-10.449l0.003907-24.461c0-1.6406-0.80859-3.1797-2.1602-4.1211zm-17.16 35.031h-11.832v-12.059c0-1.4883 1.2109-2.6992 2.6992-2.6992h6.4297c1.4883 0 2.6992 1.2109 2.6992 2.6992zm15.32-6.4492c0 3.5508-2.8906 6.4492-6.4492 6.4492h-4.8711v-12.059c0-3.6992-3.0117-6.6992-6.6992-6.6992h-6.4297c-3.6992 0-6.6992 3.0117-6.6992 6.6992v12.059h-4.3594c-3.5508 0-6.4492-2.8906-6.4492-6.4492l-0.003907-24.461c0-0.33984 0.16016-0.64844 0.44141-0.83984l19.102-13.301c0.42969-0.30078 0.94141-0.44922 1.4414-0.44922s1.0117 0.14844 1.4414 0.44922l19.094 13.301c0.28125 0.19141 0.44141 0.51172 0.44141 0.83984z"/>
</svg>