<svg xmlns="http://www.w3.org/2000/svg" version="1.1" viewBox="-5.0 -10.0 110.0 135.0">
 <path d="m58.996 85.641-1.0742 8.1797c-0.085937 0.65625-0.64844 1.1367-1.293 1.1367v0.003907h-13.254c-0.70312 0-1.2773-0.55469-1.3086-1.2461l-1.0625-8.0742c-3.4805-0.875-6.7773-2.2461-9.8359-4.0781l-6.5547 5.0273c-0.52734 0.40234-1.2617 0.33984-1.7148-0.11328l-0.003907 0.003907-9.3711-9.3711c-0.49219-0.49219-0.51172-1.2734-0.058594-1.7891l4.9727-6.4844c-1.832-3.0625-3.1992-6.3555-4.0781-9.8359l-8.1797-1.082c-0.65625-0.085938-1.1367-0.64844-1.1367-1.293h-0.003907v-13.25c0-0.70312 0.55469-1.2773 1.2461-1.3086l8.0742-1.0625c0.875-3.4766 2.2461-6.7773 4.0781-9.8359l-5.0273-6.5547c-0.40234-0.52734-0.34375-1.2617 0.11328-1.7148l-0.003907-0.003907 9.3711-9.3711c0.49219-0.49219 1.2734-0.51172 1.7891-0.058594l6.4844 4.9727c3.0625-1.832 6.3594-3.1992 9.8359-4.0781l1.0781-8.1797c0.085937-0.65625 0.64844-1.1367 1.293-1.1367l0.003906-0.003907h13.25c0.70312 0 1.2734 0.55469 1.3086 1.2461l1.0625 8.0742c3.4805 0.875 6.7773 2.2461 9.8359 4.0781l6.5547-5.0273c0.52734-0.40234 1.2617-0.34375 1.7148 0.11328l0.003907-0.003907 9.3711 9.3711c0.49219 0.49219 0.51172 1.2734 0.058594 1.7891l-4.9727 6.4844c1.832 3.0625 3.1992 6.3555 4.0781 9.8359l8.1797 1.0781c0.65625 0.085937 1.1367 0.64844 1.1367 1.293h0.003907v13.25c0 0.70312-0.55469 1.2773-1.2461 1.3086l-8.0742 1.0625c-0.875 3.4766-2.2461 6.7773-4.0781 9.8359l5.0273 6.5547c0.40234 0.52734 0.34375 1.2617-0.11328 1.7148l0.003907 0.003906-9.3711 9.3711c-0.49219 0.49219-1.2734 0.51172-1.7891 0.058594l-6.4844-4.9727c-3.0625 1.8359-6.3594 3.207-9.8398 4.082zm-8.9961-59.891c-13.391 0-24.25 10.859-24.25 24.25s10.859 24.25 24.25 24.25 24.25-10.859 24.25-24.25-10.859-24.25-24.25-24.25zm15.297 8.9531c-8.4453-8.4492-22.145-8.4453-30.59 0-8.4453 8.4453-8.4453 22.145 0 30.59 8.4453 8.4453 22.145 8.4453 30.59 0 8.4453-8.4453 8.4453-22.141 0-30.59zm-15.297-14.125c-16.246 0-29.422 13.172-29.422 29.422 0 16.246 13.172 29.422 29.422 29.422 16.246 0 29.422-13.172 29.422-29.422 0-16.246-13.176-29.422-29.422-29.422zm18.953 10.469c-10.469-10.465-27.438-10.465-37.902 0-10.465 10.465-10.465 27.438 0 37.902 10.465 10.465 27.438 10.465 37.902 0 10.465-10.465 10.465-27.434 0-37.902zm-13.473 61.297 1.0391-7.8906c0.054688-0.54688 0.44922-1.0195 1.0117-1.1445 3.5352-0.79688 7.6406-2.4219 10.641-4.4023 0.45312-0.3125 1.0742-0.31641 1.5352 0.035156l6.3555 4.875 7.75-7.75-4.875-6.3555c-0.32031-0.42188-0.36328-1.0117-0.066406-1.4883 2.0664-3.2773 3.5742-6.8828 4.4297-10.688 0.11719-0.51953 0.54688-0.93359 1.1055-1.0078l7.9336-1.0469v-10.961l-7.8945-1.0391c-0.54687-0.054688-1.0195-0.44922-1.1445-1.0117-0.79688-3.5352-2.4219-7.6406-4.4023-10.641-0.3125-0.45312-0.31641-1.0742 0.035156-1.5352l4.875-6.3555-7.75-7.75-6.3555 4.875c-0.42188 0.32031-1.0156 0.36328-1.4883 0.066406-3.2773-2.0664-6.8828-3.5742-10.688-4.4297-0.51953-0.11719-0.93359-0.54688-1.0078-1.1055l-1.0469-7.9336-10.953-0.003906-1.0391 7.8945c-0.054688 0.54688-0.44922 1.0195-1.0117 1.1445-3.5352 0.79688-7.6406 2.4219-10.641 4.4023-0.45312 0.3125-1.0742 0.31641-1.5352-0.035156l-6.3555-4.875-7.75 7.75 4.875 6.3555c0.32031 0.42188 0.36328 1.0117 0.066406 1.4883-2.0664 3.2773-3.5742 6.8828-4.4297 10.688-0.11719 0.51953-0.54688 0.93359-1.1055 1.0078l-7.9336 1.0469v10.965l7.8945 1.0391c0.54687 0.054687 1.0195 0.44922 1.1445 1.0117 0.79688 3.5352 2.4219 7.6406 4.4023 10.641 0.3125 0.45312 0.3125 1.0742-0.035156 1.5352l-4.875 6.3555 7.75 7.75 6.3555-4.875c0.42188-0.32031 1.0156-0.36328 1.4883-0.066406 3.2773 2.0664 6.8828 3.5742 10.688 4.4297 0.51953 0.11719 0.93359 0.54688 1.0078 1.1055l1.0469 7.9336 10.953-0.007812z" fill-rule="evenodd"/>
</svg>