<svg xmlns="http://www.w3.org/2000/svg" version="1.1" viewBox="-5.0 -10.0 110.0 135.0">
 <path d="m50 28.137c12.051 0 18.121 14.637 9.5938 23.164-8.5273 8.5273-23.164 2.4531-23.164-9.5938 0-7.4961 6.0781-13.57 13.57-13.57zm0-23.258c-24.918 0-45.121 20.203-45.121 45.121s20.199 45.121 45.121 45.121c24.918 0 45.121-20.203 45.121-45.121s-20.203-45.121-45.121-45.121zm28.547 16.574c-15.766-15.766-41.328-15.766-57.094 0-16.699 16.699-15.551 44.066 2.4375 59.336 3.7344-20.832 29.527-29.242 44.781-14.137 3.793 3.7578 6.4609 8.6523 7.4414 14.137 17.984-15.27 19.133-42.637 2.4336-59.336zm-50.293 62.566c13.227 8.4727 30.27 8.4727 43.496 0-1.2461-18.527-23.848-27.113-37.078-14.008-3.668 3.6289-6.0508 8.543-6.418 14.008zm27.984-48.551c-5.543-5.543-15.059-1.5977-15.059 6.2383 0 7.8359 9.5156 11.777 15.059 6.2383 3.4414-3.4492 3.4414-9.0352 0-12.477z" fill-rule="evenodd"/>
</svg>