<svg xmlns="http://www.w3.org/2000/svg" version="1.1" viewBox="-5.0 -10.0 110.0 135.0">
 <g>
  <path d="m45.266 55.316c-0.11719-0.85938-0.95312-1.4453-1.7578-1.332-0.85937 0.11719-1.4531 0.90625-1.3359 1.7578 0.023437 0.15625 0.015625 0.33203 0.015625 0.50781 0 3.5898-1.1523 6.9922-3.2188 9.8867-1.9453-3.1016-4.875-5.4023-8.2695-6.6484 2.0352-1.6641 3.3633-4.1602 3.3633-6.9883 0-4.9961-4.0625-9.0625-9.0625-9.0625s-9.0625 4.0664-9.0625 9.0625c0 2.8281 1.3281 5.3242 3.3633 6.9883-3.3945 1.2461-6.3242 3.5469-8.2695 6.6523-2.0547-2.8672-3.2188-6.2812-3.2188-9.8906 0-4.6094 1.7891-8.9219 5.0469-12.152 2.9219-2.9492 6.6523-4.6719 10.789-4.9766 0.85937-0.066406 1.5078-0.8125 1.4414-1.6758-0.0625-0.85937-0.82812-1.5195-1.6719-1.4414-4.8281 0.35938-9.3672 2.4531-12.766 5.8867-3.8477 3.8086-5.9648 8.9102-5.9648 14.359 0 5.1836 1.9375 10.09 5.4492 13.809 3.8164 4.1328 9.2344 6.5039 14.863 6.5039 5.4492 0 10.551-2.1172 14.355-5.957 0.1875-0.1875 0.37109-0.37891 0.5-0.53516 3.5195-3.7305 5.457-8.6367 5.457-13.82 0-0.32812-0.007812-0.64844-0.046875-0.93359zm-26.203-2.8164c0-3.2734 2.6641-5.9375 5.9375-5.9375s5.9375 2.6641 5.9375 5.9375-2.6641 5.9375-5.9375 5.9375-5.9375-2.6641-5.9375-5.9375zm-5.8594 16.191c2.2852-4.3516 6.7891-7.1289 11.797-7.1289 5.0039 0 9.5117 2.7773 11.797 7.125-3.1797 3.0469-7.3359 4.75-11.797 4.75-4.3945 0-8.625-1.7266-11.797-4.7461z"/>
  <path d="m89.355 70.605c0.1875-0.1875 0.37109-0.37891 0.5-0.53516 3.5195-3.7305 5.457-8.6367 5.457-13.82 0-5.4492-2.1172-10.551-5.9492-14.352-3.4141-3.4414-7.9531-5.5352-12.781-5.8945-0.86328-0.082031-1.6094 0.58203-1.6719 1.4414-0.066406 0.86328 0.58203 1.6094 1.4414 1.6758 4.1367 0.30469 7.8672 2.0273 10.801 4.9883 3.2461 3.2188 5.0352 7.5312 5.0352 12.141 0 3.5898-1.1523 6.9922-3.2188 9.8867-1.9453-3.1016-4.875-5.4023-8.2695-6.6484 2.0352-1.6641 3.3633-4.1602 3.3633-6.9883 0-4.9961-4.0625-9.0625-9.0625-9.0625s-9.0625 4.0664-9.0625 9.0625c0 2.8281 1.3281 5.3242 3.3633 6.9883-3.3945 1.2461-6.3242 3.5469-8.2695 6.6523-2.0547-2.8672-3.2188-6.2812-3.2188-9.8906 0-0.17578-0.007812-0.35156 0.015625-0.50781 0.11719-0.85156-0.47656-1.6406-1.3359-1.7578-0.80469-0.097656-1.6406 0.47266-1.7578 1.332-0.039063 0.28516-0.046875 0.60547-0.046875 0.93359 0 5.1836 1.9375 10.09 5.4492 13.809 3.8164 4.1328 9.2344 6.5039 14.863 6.5039 5.4492 0 10.551-2.1172 14.355-5.957zm-20.293-18.105c0-3.2734 2.6641-5.9375 5.9375-5.9375s5.9375 2.6641 5.9375 5.9375-2.6641 5.9375-5.9375 5.9375-5.9375-2.6641-5.9375-5.9375zm5.9375 9.0625c5.0039 0 9.5117 2.7773 11.797 7.125-3.1797 3.0469-7.3359 4.75-11.797 4.75-4.3984 0-8.625-1.7266-11.797-4.7461 2.2852-4.3516 6.7891-7.1289 11.797-7.1289z"/>
  <path d="m50 51.562c6.2578 0 12.145-2.4375 16.574-6.8633 4.4258-4.4297 6.8633-10.312 6.8633-16.574 0-3.9688-0.95703-7.75-2.8398-11.242-0.41797-0.76172-1.3672-1.043-2.1211-0.63281-0.75781 0.41016-1.043 1.3594-0.62891 2.1172 1.6367 3.0312 2.4648 6.3164 2.4648 9.7578 0 4.2383-1.3047 8.2656-3.6953 11.66-2.8164-2.875-6.3008-4.9297-10.129-6.0273 2.6836-1.9961 4.4492-5.1641 4.4492-8.7578 0-6.0312-4.9062-10.938-10.938-10.938s-10.938 4.9062-10.938 10.938c0 3.5938 1.7656 6.7617 4.4492 8.7578-3.8242 1.0977-7.3047 3.1484-10.121 6.0195-2.3242-3.3008-3.7031-7.3164-3.7031-11.652 0-5.4258 2.1133-10.527 5.9492-14.363 3.8359-3.8359 8.9375-5.9492 14.363-5.9492 3.4414 0 6.7266 0.82812 9.7578 2.4688 0.75 0.41016 1.707 0.12891 2.1211-0.63281 0.40625-0.75781 0.125-1.707-0.63672-2.1172-3.4922-1.8867-7.2734-2.8438-11.242-2.8438-6.2578 0-12.145 2.4375-16.574 6.8633-4.4258 4.4297-6.8633 10.312-6.8633 16.574 0 12.926 10.512 23.438 23.438 23.438zm-7.8125-26.562c0-4.3086 3.5039-7.8125 7.8125-7.8125s7.8125 3.5039 7.8125 7.8125-3.5039 7.8125-7.8125 7.8125-7.8125-3.5039-7.8125-7.8125zm7.8125 10.938c5.5898 0 10.828 2.2852 14.613 6.2773-0.085937 0.089844-0.16016 0.1875-0.25 0.27344-3.8359 3.8359-8.9375 5.9492-14.363 5.9492-5.7344 0-10.91-2.3984-14.605-6.2305 3.7812-3.9883 9.0195-6.2695 14.605-6.2695z"/>
  <path d="m51.562 79.844v-23.594c0-0.86328-0.69922-1.5625-1.5625-1.5625s-1.5625 0.69922-1.5625 1.5625v23.594c-3.5625 0.72656-6.25 3.8828-6.25 7.6562 0 4.3086 3.5039 7.8125 7.8125 7.8125s7.8125-3.5039 7.8125-7.8125c0-3.7734-2.6875-6.9297-6.25-7.6562zm-1.5625 12.344c-2.5859 0-4.6875-2.1016-4.6875-4.6875s2.1016-4.6875 4.6875-4.6875 4.6875 2.1016 4.6875 4.6875-2.1016 4.6875-4.6875 4.6875z"/>
  <path d="m25 79.688c-0.86328 0-1.5625 0.69922-1.5625 1.5625v3.125c0 0.85938-0.70312 1.5625-1.5625 1.5625h-1.7188c-0.72656-3.5625-3.8828-6.25-7.6562-6.25-4.3086 0-7.8125 3.5039-7.8125 7.8125s3.5039 7.8125 7.8125 7.8125c3.7734 0 6.9297-2.6875 7.6562-6.25h1.7188c2.5859 0 4.6875-2.1016 4.6875-4.6875v-3.125c0-0.86328-0.69922-1.5625-1.5625-1.5625zm-12.5 12.5c-2.5859 0-4.6875-2.1016-4.6875-4.6875s2.1016-4.6875 4.6875-4.6875 4.6875 2.1016 4.6875 4.6875-2.1016 4.6875-4.6875 4.6875z"/>
  <path d="m87.5 79.688c-3.7734 0-6.9297 2.6875-7.6562 6.25h-1.7188c-0.85938 0-1.5625-0.70312-1.5625-1.5625v-3.125c0-0.86328-0.69922-1.5625-1.5625-1.5625s-1.5625 0.69922-1.5625 1.5625v3.125c0 2.5859 2.1016 4.6875 4.6875 4.6875h1.7188c0.72656 3.5625 3.8828 6.25 7.6562 6.25 4.3086 0 7.8125-3.5039 7.8125-7.8125s-3.5039-7.8125-7.8125-7.8125zm0 12.5c-2.5859 0-4.6875-2.1016-4.6875-4.6875s2.1016-4.6875 4.6875-4.6875 4.6875 2.1016 4.6875 4.6875-2.1016 4.6875-4.6875 4.6875z"/>
  <path d="m66.574 13.762c0.60938-0.60938 0.60938-1.5977 0-2.2109-0.61328-0.60938-1.6016-0.60938-2.2109 0-0.60938 0.61328-0.60938 1.6016 0 2.2109s1.5977 0.60938 2.2109 0z"/>
 </g>
</svg>